<?xml version="1.0" encoding="utf-8"?>
<!-- Generator: Adobe Illustrator 25.3.1, SVG Export Plug-In . SVG Version: 6.00 Build 0)  -->
<svg version="1.1" id="Camada_1" xmlns="http://www.w3.org/2000/svg" xmlns:xlink="http://www.w3.org/1999/xlink" x="0px" y="0px"
	 viewBox="0 0 163 40" style="enable-background:new 0 0 163 40;" xml:space="preserve">
<style type="text/css">
	.st0{fill:#494D4B;}
	.st1{fill:#04D361;}
	.st2{fill:#8257E5;}
</style>
<path class="st0" d="M38.1,19.9c0,3.2-0.8,6.3-2.3,9c-0.2,0.4-0.4,0.7-0.6,1.1c-0.1,0.2-0.3,0.3-0.4,0.4c-0.2,0.1-0.4,0.2-0.6,0.2
	s-0.4,0-0.6,0c-0.2,0-0.4-0.1-0.6-0.2c-0.2-0.1-0.3-0.3-0.4-0.4c-0.1-0.2-0.2-0.4-0.2-0.6c0-0.2,0-0.4,0-0.6c0-0.2,0.1-0.4,0.2-0.6
	c1.5-2.3,2.3-4.9,2.5-7.6c0.1-2.7-0.5-5.4-1.8-7.8S30,8.5,27.7,7.1S22.7,5,20,5c-5.2,0-9.8,2.7-12.5,6.8C5.9,14.3,5,17.1,5,20
	c0,2.9,0.9,5.8,2.5,8.2c0.2,0.3,0.3,0.8,0.2,1.2c-0.1,0.4-0.3,0.8-0.7,1c-0.3,0.2-0.8,0.3-1.2,0.2c-0.4-0.1-0.8-0.3-1-0.7
	c-1.8-2.7-2.8-5.8-3-9.1c-0.2-3.2,0.6-6.5,2.1-9.3c1.5-2.9,3.8-5.3,6.5-7c2.8-1.7,5.9-2.6,9.2-2.7c0.1,0,0.2,0,0.3,0
	c4.8,0,9.4,1.9,12.8,5.3C36.2,10.5,38.1,15.1,38.1,19.9z"/>
<path class="st1" d="M9.1,22.8l2.8,14.1c0.2,0.8,1,1.4,1.8,1.2c0.8-0.2,1.4-1,1.2-1.8l-2.8-14.1c-0.2-0.8-1-1.4-1.8-1.2
	C9.4,21.1,8.9,21.9,9.1,22.8z"/>
<path class="st0" d="M11.8,36.6l-0.7,0.1c-1.1,0.2-2.2,0-3.1-0.6c-0.9-0.6-1.6-1.5-1.9-2.5c0-0.1,0-0.2-0.1-0.2l-1-5.1
	c-0.2-1.1,0-2.3,0.6-3.2c0.6-0.9,1.6-1.6,2.7-1.8l0.7-0.1l1.3,6.3L11.8,36.6z"/>
<path class="st0" d="M11.8,36.6l-0.7,0.1c-1.1,0.2-2.2,0-3.1-0.6c-0.9-0.6-1.6-1.5-1.9-2.5c1.5-1.3,2.9-2.7,4.2-4.3L11.8,36.6z"/>
<path class="st0" d="M36.1,27.1l-0.4,1.8c-0.2,0.4-0.4,0.7-0.6,1c-0.1,0.2-0.3,0.3-0.4,0.4c-0.2,0.1-0.4,0.2-0.6,0.2
	c-0.2,0-0.4,0-0.6,0c-0.2,0-0.4-0.1-0.6-0.2c-0.2-0.1-0.3-0.3-0.4-0.4c-0.1-0.2-0.2-0.4-0.2-0.6c0-0.2,0-0.4,0-0.6
	c0-0.2,0.1-0.4,0.2-0.6c1.1-1.6,1.8-3.4,2.2-5.3c0.6,0.5,1,1.1,1.3,1.9C36.2,25.6,36.3,26.3,36.1,27.1z"/>
<path class="st2" d="M34.3,8.8l-2.2,2.2c-1.4-1.9-3.2-3.4-5.3-4.5C24.6,5.5,22.3,5,20,5c-5.2,0-9.8,2.7-12.5,6.8L5.2,9.6
	C6.8,7.2,9,5.3,11.5,4c2.5-1.3,5.3-2.1,8.2-2.1c0.1,0,0.2,0,0.3,0c2.8,0,5.5,0.6,8,1.8C30.4,4.9,32.6,6.7,34.3,8.8z"/>
<path class="st1" d="M27.8,22.2L25,36.3c-0.2,0.8,0.4,1.7,1.2,1.8c0.8,0.2,1.7-0.4,1.8-1.2l2.8-14.1c0.2-0.8-0.4-1.7-1.2-1.8
	S28,21.3,27.8,22.2z"/>
<path class="st0" d="M34.9,28.3l-1,5.1c-0.2,1.1-0.9,2.1-1.8,2.7c-0.9,0.6-2.1,0.9-3.2,0.6l-0.7-0.1l0.7-3.7l2-9.8l0.7,0.1
	c1.1,0.2,2.1,0.9,2.7,1.8c0.1,0.1,0.2,0.3,0.2,0.4C35,26.3,35.1,27.3,34.9,28.3z"/>
<path class="st0" d="M34.9,28.3l-1,5.1c-0.2,1.1-0.9,2.1-1.8,2.7c-0.9,0.6-2.1,0.9-3.2,0.6l-0.7-0.1l0.7-3.7c2.1-2.3,4-4.7,5.6-7.4
	C35,26.3,35.1,27.3,34.9,28.3z"/>
<g>
	<path class="st0" d="M56.3,10.7c1.5-0.2,3.5-0.4,5.5-0.4c3.5,0,6,0.7,7.7,2.2c1.9,1.5,3,3.8,3,7c0,3.4-1.2,5.9-3,7.5
		c-1.9,1.7-4.9,2.6-8.6,2.6c-2,0-3.5-0.1-4.7-0.3V10.7z M59.8,26.8c0.5,0.1,1.2,0.1,1.9,0.1c4.5,0,7.2-2.5,7.2-7.3
		c0-4.2-2.4-6.6-6.7-6.6c-1.1,0-1.9,0.1-2.4,0.2V26.8z"/>
	<path class="st0" d="M77.8,23.5c0.1,2.5,2,3.5,4.2,3.5c1.6,0,2.7-0.3,3.8-0.6l0.5,2.4c-1.2,0.5-2.8,0.9-4.8,0.9
		c-4.4,0-7.1-2.7-7.1-6.9c0-3.8,2.3-7.4,6.7-7.4c4.4,0,5.9,3.7,5.9,6.7c0,0.6-0.1,1.2-0.1,1.5H77.8z M83.9,21.1
		c0-1.3-0.5-3.3-2.8-3.3c-2.1,0-3,1.9-3.2,3.3H83.9z"/>
	<path class="st0" d="M92,15.7l2.2,7c0.4,1.2,0.7,2.3,0.9,3.4h0.1c0.3-1.1,0.6-2.2,0.9-3.4l2.2-7h3.6l-5.2,13.7h-3.4l-5.1-13.7H92z"
		/>
	<path class="st0" d="M113.8,29c-0.7,0.3-2.2,0.7-3.9,0.7c-4.3,0-7.1-2.8-7.1-7c0-4.1,2.8-7.3,7.6-7.3c1.3,0,2.6,0.3,3.3,0.6
		l-0.6,2.6c-0.6-0.3-1.4-0.5-2.6-0.5c-2.6,0-4.2,1.9-4.2,4.4c0,2.8,1.8,4.4,4.2,4.4c1.2,0,2.1-0.3,2.7-0.5L113.8,29z"/>
	<path class="st0" d="M127,26.1c0,1.2,0.1,2.4,0.2,3.3h-3.1l-0.3-1.5h-0.1c-0.8,1.1-2.3,1.8-4.1,1.8c-2.8,0-4.3-2-4.3-4.1
		c0-3.4,3.1-5.2,8.1-5.2v-0.2c0-0.9-0.4-2.4-2.8-2.4c-1.4,0-2.8,0.4-3.7,1l-0.7-2.3c1-0.6,2.8-1.2,5-1.2c4.4,0,5.7,2.8,5.7,5.8V26.1
		z M123.6,22.7c-2.4,0-4.8,0.5-4.8,2.6c0,1.4,0.9,2,2,2c1.4,0,2.4-0.9,2.7-1.9c0.1-0.3,0.1-0.5,0.1-0.8V22.7z"/>
	<path class="st0" d="M130.5,26.2c0.8,0.5,2.3,1,3.5,1c1.5,0,2.2-0.6,2.2-1.5c0-0.9-0.6-1.4-2.3-2c-2.7-0.9-3.8-2.4-3.8-4
		c0-2.4,2-4.3,5.2-4.3c1.5,0,2.8,0.4,3.7,0.8l-0.7,2.4c-0.6-0.3-1.7-0.8-2.9-0.8c-1.2,0-1.9,0.6-1.9,1.5c0,0.9,0.6,1.3,2.4,1.9
		c2.5,0.9,3.6,2.1,3.7,4.2c0,2.5-1.9,4.3-5.6,4.3c-1.7,0-3.2-0.4-4.2-1L130.5,26.2z"/>
	<path class="st0" d="M146.4,12.2v3.5h3.3v2.6h-3.3v6c0,1.7,0.5,2.5,1.8,2.5c0.6,0,1,0,1.4-0.1l0.1,2.6c-0.5,0.2-1.4,0.4-2.5,0.4
		c-1.3,0-2.3-0.4-3-1.1c-0.8-0.8-1.1-2.1-1.1-3.9v-6.4H141v-2.6h1.9v-2.6L146.4,12.2z"/>
	<path class="st0" d="M152.3,20.1c0-1.9,0-3.2-0.1-4.4h3l0.1,2.6h0.1c0.7-1.9,2.3-2.9,3.8-2.9c0.3,0,0.5,0,0.8,0.1v3.2
		c-0.3-0.1-0.6-0.1-1-0.1c-1.6,0-2.8,1-3.1,2.6c-0.1,0.3-0.1,0.7-0.1,1v7.1h-3.5V20.1z"/>
</g>
</svg>
