<?xml version="1.0" encoding="utf-8"?>
<!-- Generator: Adobe Illustrator 25.3.1, SVG Export Plug-In . SVG Version: 6.00 Build 0)  -->
<svg version="1.1" id="Camada_1" xmlns="http://www.w3.org/2000/svg" xmlns:xlink="http://www.w3.org/1999/xlink" x="0px" y="0px"
	 viewBox="0 0 163 40" style="enable-background:new 0 0 163 40;" xml:space="preserve">
<style type="text/css">
	.st0{fill:#494D4B;}
	.st1{fill:#04D361;}
	.st2{fill:#8257E5;}
</style>
<path class="st0" d="M38.1,19.9c0,3.2-0.8,6.3-2.3,9c-0.2,0.4-0.4,0.7-0.6,1.1c-0.1,0.2-0.3,0.3-0.4,0.4c-0.2,0.1-0.4,0.2-0.6,0.2
	s-0.4,0-0.6,0c-0.2,0-0.4-0.1-0.6-0.2c-0.2-0.1-0.3-0.3-0.4-0.4c-0.1-0.2-0.2-0.4-0.2-0.6s0-0.4,0-0.6s0.1-0.4,0.2-0.6
	c1.5-2.3,2.3-4.9,2.5-7.6c0.1-2.7-0.5-5.4-1.8-7.8S30,8.5,27.7,7.1S22.7,5,20,5c-5.2,0-9.8,2.7-12.5,6.8C5.9,14.3,5,17.1,5,20
	s0.9,5.8,2.5,8.2c0.2,0.3,0.3,0.8,0.2,1.2c-0.1,0.4-0.3,0.8-0.7,1c-0.3,0.2-0.8,0.3-1.2,0.2c-0.4-0.1-0.8-0.3-1-0.7
	c-1.8-2.7-2.8-5.8-3-9.1c-0.2-3.2,0.6-6.5,2.1-9.3c1.5-2.9,3.8-5.3,6.5-7c2.8-1.7,5.9-2.6,9.2-2.7c0.1,0,0.2,0,0.3,0
	c4.8,0,9.4,1.9,12.8,5.3C36.2,10.5,38.1,15.1,38.1,19.9z"/>
<path class="st1" d="M9.1,22.8l2.8,14.1c0.2,0.8,1,1.4,1.8,1.2s1.4-1,1.2-1.8l-2.8-14.1c-0.2-0.8-1-1.4-1.8-1.2
	C9.4,21.1,8.9,21.9,9.1,22.8z"/>
<path class="st0" d="M11.8,36.6l-0.7,0.1c-1.1,0.2-2.2,0-3.1-0.6s-1.6-1.5-1.9-2.5c0-0.1,0-0.2-0.1-0.2l-1-5.1
	c-0.2-1.1,0-2.3,0.6-3.2c0.6-0.9,1.6-1.6,2.7-1.8L9,23.2l1.3,6.3L11.8,36.6z"/>
<path class="st0" d="M11.8,36.6l-0.7,0.1c-1.1,0.2-2.2,0-3.1-0.6s-1.6-1.5-1.9-2.5c1.5-1.3,2.9-2.7,4.2-4.3L11.8,36.6z"/>
<path class="st0" d="M36.1,27.1l-0.4,1.8c-0.2,0.4-0.4,0.7-0.6,1c-0.1,0.2-0.3,0.3-0.4,0.4c-0.2,0.1-0.4,0.2-0.6,0.2
	c-0.2,0-0.4,0-0.6,0c-0.2,0-0.4-0.1-0.6-0.2c-0.2-0.1-0.3-0.3-0.4-0.4c-0.1-0.2-0.2-0.4-0.2-0.6s0-0.4,0-0.6s0.1-0.4,0.2-0.6
	c1.1-1.6,1.8-3.4,2.2-5.3c0.6,0.5,1,1.1,1.3,1.9C36.2,25.6,36.3,26.3,36.1,27.1z"/>
<path class="st2" d="M34.3,8.8L32.1,11c-1.4-1.9-3.2-3.4-5.3-4.5C24.6,5.5,22.3,5,20,5c-5.2,0-9.8,2.7-12.5,6.8L5.2,9.6
	C6.8,7.2,9,5.3,11.5,4s5.3-2.1,8.2-2.1c0.1,0,0.2,0,0.3,0c2.8,0,5.5,0.6,8,1.8C30.4,4.9,32.6,6.7,34.3,8.8z"/>
<path class="st1" d="M27.8,22.2L25,36.3c-0.2,0.8,0.4,1.7,1.2,1.8c0.8,0.2,1.7-0.4,1.8-1.2l2.8-14.1c0.2-0.8-0.4-1.7-1.2-1.8
	S28,21.3,27.8,22.2z"/>
<path class="st0" d="M34.9,28.3l-1,5.1c-0.2,1.1-0.9,2.1-1.8,2.7c-0.9,0.6-2.1,0.9-3.2,0.6l-0.7-0.1l0.7-3.7l2-9.8l0.7,0.1
	c1.1,0.2,2.1,0.9,2.7,1.8c0.1,0.1,0.2,0.3,0.2,0.4C35,26.3,35.1,27.3,34.9,28.3z"/>
<path class="st0" d="M34.9,28.3l-1,5.1c-0.2,1.1-0.9,2.1-1.8,2.7c-0.9,0.6-2.1,0.9-3.2,0.6l-0.7-0.1l0.7-3.7c2.1-2.3,4-4.7,5.6-7.4
	C35,26.3,35.1,27.3,34.9,28.3z"/>
<g>
	<path class="st0" d="M51.7,11.1h3.1l3.9,11.8l4-11.8h3.1l2.8,16.9h-3.1l-1.8-10.7l-3.6,10.7h-2.8l-3.6-10.7L52,27.9h-3.1L51.7,11.1
		z"/>
	<path class="st0" d="M79,15.5h3.1v12.5H79v-1.3c-0.6,0.6-1.2,1-1.8,1.3c-0.6,0.3-1.3,0.4-2,0.4c-1.6,0-3-0.6-4.2-1.9
		c-1.2-1.3-1.8-2.8-1.8-4.7c0-1.9,0.6-3.5,1.7-4.7c1.1-1.2,2.5-1.8,4.2-1.8c0.7,0,1.5,0.1,2.1,0.4c0.7,0.3,1.3,0.7,1.8,1.3V15.5z
		 M75.7,18c-1,0-1.8,0.3-2.4,1c-0.6,0.7-1,1.6-1,2.6c0,1.1,0.3,2,1,2.7c0.7,0.7,1.5,1,2.4,1c1,0,1.8-0.3,2.4-1c0.6-0.7,1-1.6,1-2.7
		c0-1.1-0.3-2-1-2.6C77.5,18.4,76.7,18,75.7,18z"/>
	<path class="st0" d="M84.1,15.5h3.1v1.3c0.7-0.6,1.4-1,1.9-1.3s1.2-0.4,1.8-0.4c1.2,0,2.3,0.4,3.2,1.3c0.7,0.7,1.1,1.8,1.1,3.3v8.3
		h-3.1v-5.5c0-1.5-0.1-2.5-0.2-3c-0.1-0.5-0.4-0.9-0.7-1.1c-0.3-0.3-0.7-0.4-1.2-0.4c-0.6,0-1.2,0.2-1.6,0.6c-0.5,0.4-0.8,1-0.9,1.8
		c-0.1,0.4-0.1,1.2-0.1,2.5v5h-3.1V15.5z"/>
	<path class="st0" d="M98.3,10.3c0.5,0,1,0.2,1.4,0.6c0.4,0.4,0.6,0.9,0.6,1.4c0,0.6-0.2,1-0.6,1.4c-0.4,0.4-0.9,0.6-1.4,0.6
		c-0.6,0-1-0.2-1.4-0.6c-0.4-0.4-0.6-0.9-0.6-1.5c0-0.6,0.2-1,0.6-1.4C97.2,10.5,97.7,10.3,98.3,10.3z M96.7,15.5h3.1v12.5h-3.1
		V15.5z"/>
	<path class="st0" d="M104.6,15.5v1.4c0.6-0.6,1.2-1,1.8-1.3c0.7-0.3,1.4-0.4,2.1-0.4c1.6,0,3,0.6,4.2,1.8c1.1,1.2,1.7,2.8,1.7,4.7
		c0,1.9-0.6,3.4-1.8,4.7c-1.2,1.3-2.6,1.9-4.2,1.9c-0.7,0-1.4-0.1-2-0.4c-0.6-0.3-1.2-0.7-1.8-1.3v5.9h-3.1V15.5H104.6z M107.9,18
		c-1,0-1.8,0.3-2.5,1c-0.7,0.7-1,1.6-1,2.6c0,1.1,0.3,2,1,2.7c0.7,0.7,1.5,1,2.5,1c1,0,1.8-0.3,2.4-1c0.7-0.7,1-1.6,1-2.7
		c0-1.1-0.3-2-1-2.6C109.7,18.4,108.9,18,107.9,18z"/>
	<path class="st0" d="M115.8,15.5h3.2v6c0,1.2,0.1,2,0.2,2.4s0.4,0.8,0.8,1.1c0.4,0.3,0.8,0.4,1.3,0.4s1-0.1,1.3-0.4
		c0.4-0.2,0.6-0.6,0.8-1.1c0.1-0.4,0.2-1.1,0.2-2.3v-6.1h3.1v5.3c0,2.2-0.2,3.7-0.5,4.5c-0.4,1-1,1.7-1.9,2.3s-1.9,0.8-3.1,0.8
		c-1.4,0-2.5-0.3-3.3-0.9c-0.8-0.6-1.4-1.5-1.8-2.6c-0.2-0.8-0.4-2.1-0.4-4.1V15.5z"/>
	<path class="st0" d="M128.4,10.6h3.1v17.3h-3.1V10.6z"/>
	<path class="st0" d="M142.5,15.5h3.1v12.5h-3.1v-1.3c-0.6,0.6-1.2,1-1.8,1.3c-0.6,0.3-1.3,0.4-2,0.4c-1.6,0-3-0.6-4.2-1.9
		c-1.2-1.3-1.8-2.8-1.8-4.7c0-1.9,0.6-3.5,1.7-4.7c1.1-1.2,2.5-1.8,4.2-1.8c0.8,0,1.5,0.1,2.1,0.4c0.7,0.3,1.3,0.7,1.8,1.3V15.5z
		 M139.2,18c-1,0-1.8,0.3-2.4,1c-0.6,0.7-1,1.6-1,2.6c0,1.1,0.3,2,1,2.7c0.7,0.7,1.5,1,2.4,1c1,0,1.8-0.3,2.4-1c0.6-0.7,1-1.6,1-2.7
		c0-1.1-0.3-2-1-2.6C141,18.4,140.2,18,139.2,18z"/>
	<path class="st0" d="M160.1,22.6H150c0.1,0.9,0.5,1.6,1.2,2.1c0.6,0.5,1.4,0.8,2.4,0.8c1.2,0,2.2-0.4,3-1.2l2.6,1.2
		c-0.7,0.9-1.4,1.6-2.4,2.1c-0.9,0.4-2,0.7-3.3,0.7c-2,0-3.6-0.6-4.8-1.9s-1.8-2.8-1.8-4.6c0-1.9,0.6-3.5,1.8-4.7s2.8-1.9,4.6-1.9
		c2,0,3.6,0.6,4.8,1.9s1.8,2.9,1.8,5L160.1,22.6z M157,20.1c-0.2-0.7-0.6-1.3-1.2-1.7s-1.3-0.7-2.1-0.7c-0.9,0-1.6,0.2-2.3,0.7
		c-0.4,0.3-0.8,0.8-1.2,1.6H157z"/>
</g>
</svg>
